<svg xmlns="http://www.w3.org/2000/svg" width="14" height="" viewBox="0 0 27.2 31.086">
  <path id="Icon_awesome-calendar-alt" data-name="Icon awesome-calendar-alt" d="M0,28.172a2.915,2.915,0,0,0,2.914,2.914H24.286A2.915,2.915,0,0,0,27.2,28.172V11.657H0Zm19.429-11.9a.731.731,0,0,1,.729-.729h2.429a.731.731,0,0,1,.729.729V18.7a.731.731,0,0,1-.729.729H20.157a.731.731,0,0,1-.729-.729Zm0,7.771a.731.731,0,0,1,.729-.729h2.429a.731.731,0,0,1,.729.729v2.429a.731.731,0,0,1-.729.729H20.157a.731.731,0,0,1-.729-.729Zm-7.771-7.771a.731.731,0,0,1,.729-.729h2.429a.731.731,0,0,1,.729.729V18.7a.731.731,0,0,1-.729.729H12.386a.731.731,0,0,1-.729-.729Zm0,7.771a.731.731,0,0,1,.729-.729h2.429a.731.731,0,0,1,.729.729v2.429a.731.731,0,0,1-.729.729H12.386a.731.731,0,0,1-.729-.729ZM3.886,16.272a.731.731,0,0,1,.729-.729H7.043a.731.731,0,0,1,.729.729V18.7a.731.731,0,0,1-.729.729H4.614a.731.731,0,0,1-.729-.729Zm0,7.771a.731.731,0,0,1,.729-.729H7.043a.731.731,0,0,1,.729.729v2.429a.731.731,0,0,1-.729.729H4.614a.731.731,0,0,1-.729-.729Zm20.4-20.157H21.372V.971A.974.974,0,0,0,20.4,0H18.457a.974.974,0,0,0-.971.971V3.886H9.714V.971A.974.974,0,0,0,8.743,0H6.8a.974.974,0,0,0-.971.971V3.886H2.914A2.915,2.915,0,0,0,0,6.8V9.714H27.2V6.8A2.915,2.915,0,0,0,24.286,3.886Z"/>
</svg>
